<svg width="64" height="64" viewBox="0 0 64 64" fill="none" xmlns="http://www.w3.org/2000/svg">
  <defs>
    <linearGradient id="flameGradient" x1="20" y1="10" x2="44" y2="56" gradientUnits="userSpaceOnUse">
      <stop offset="0" stop-color="#f97316" />
      <stop offset="0.5" stop-color="#ea580c" />
      <stop offset="1" stop-color="#dc2626" />
    </linearGradient>
    <radialGradient id="glow" cx="0" cy="0" r="1" gradientUnits="userSpaceOnUse" gradientTransform="translate(32 42) scale(24 18)">
      <stop offset="0" stop-color="#fde68a" stop-opacity="0.55" />
      <stop offset="1" stop-color="#fb923c" stop-opacity="0" />
    </radialGradient>
    <linearGradient id="pyreGradient" x1="24" y1="22" x2="44" y2="44" gradientUnits="userSpaceOnUse">
      <stop offset="0" stop-color="#fde68a" />
      <stop offset="1" stop-color="#f97316" />
    </linearGradient>
  </defs>
  <circle cx="32" cy="36" r="24" fill="url(#glow)" />
  <path
    d="M32 6c-3.4 4.4-4.8 7.6-4.8 11.2 0 4.4 3 7 3 10.4 0 2.2-1.4 3.6-3.6 3.6-3.4 0-6.2-3.4-6.2-8.8 0-3.8 1.6-7.6 4.6-10.6C18 15.4 12.8 23.8 12.8 33c0 10.8 8 20.6 18 24.6-2.6-3.8-3.8-7.4-3.8-11 0-5.6 2.4-10 6.4-12.8 2.4 3 3.6 6.4 3.6 10.2 0 3.4-1 6.6-3 9.6C44.6 48.6 51.2 39.4 51.2 29c0-9.6-6.8-18-15.6-20.8 2.8 3 4.2 6.6 4.2 10.2 0 5.2-3 8.8-6.2 8.8-2 0-3.6-1.4-3.6-3.6 0-3.6 3-6 3-10.4 0-3.4-1.4-6.6-4-10.2z"
    fill="url(#flameGradient)"
  />
  <path
    d="M32 24c-4.2 3.2-6.6 7.2-6.6 11.8 0 3.8 1.8 7.2 4.8 10.2 4.2-2 7.4-6.4 7.4-11.2 0-4-2.2-7.6-5.6-10.8z"
    fill="url(#pyreGradient)"
  />
  <text x="10" y="30" font-family="'Inter', 'Segoe UI', sans-serif" font-weight="700" font-size="18" fill="#0f172a">
    As
  </text>
  <text x="26" y="38" font-family="'Inter', 'Segoe UI', sans-serif" font-weight="700" font-size="16" fill="#fff7ed">
    pyre
  </text>
</svg>
